<svg width="241" height="241" viewBox="0 0 241 241" fill="none" xmlns="http://www.w3.org/2000/svg">
<path d="M179.077 157.381C179.648 159.428 179.525 179.047 172.99 186.316C166.456 193.584 160.516 190.432 160.454 184.902C160.392 179.372 160.971 164.101 160.971 164.101L179.077 157.381Z" fill="#FFB000"/>
<path d="M162.068 183.86C161.481 183.697 160.948 183.574 160.446 183.473C160.446 183.991 160.446 184.478 160.446 184.902C160.508 190.433 166.44 193.584 172.982 186.316C174.163 184.933 175.113 183.368 175.794 181.681C171.77 183.651 166.888 185.15 162.068 183.86Z" fill="white"/>
<path d="M168.015 186.857C167.455 187.443 167.014 188.133 166.718 188.888C166.546 189.369 166.454 189.876 166.447 190.387" stroke="#201C1D" stroke-width="1.00276" stroke-linecap="round" stroke-linejoin="round"/>
<path d="M163.621 186.177C163.289 186.416 163.065 187.367 162.378 188.641C162.045 189.243 162.378 189.321 162.378 189.321" stroke="#201C1D" stroke-width="1.00276" stroke-linecap="round" stroke-linejoin="round"/>
<path d="M199.089 111.57C200.264 110.257 204.187 101.621 211.023 106.881C217.859 112.142 214.592 121.372 212.514 123.357C210.436 125.342 199.089 111.57 199.089 111.57Z" fill="#FFB000"/>
<path d="M24.68 110.906C26.5252 110.331 28.4848 110.228 30.3803 110.604C31.1616 110.821 31.9217 111.108 32.6512 111.462C28.8896 112.381 24.4482 113.91 27.3139 114.845C28.7042 115.293 30.3649 115.726 31.4077 116.089C30.3572 116.428 29.2063 116.761 28.0554 117.077C25.3211 117.193 23.2433 117.471 23.8535 119.178C24.1582 119.792 24.6258 120.311 25.2052 120.677C26.8583 122.061 28.5887 123.351 30.3881 124.539C30.341 124.655 30.2568 124.753 30.1486 124.817C28.3721 126.068 21.6521 126.192 24.9889 127.636C26.6311 128.342 28.3422 128.875 30.0946 129.227C29.4025 129.742 28.7657 130.327 28.1944 130.973C23.9616 135.685 31.7012 133.591 33.9643 134.062C36.2275 134.534 30.9288 145.208 37.6487 157.683C44.2991 170.041 50.5093 171.323 50.5093 171.323C50.5093 171.323 53.1201 195.5 62.752 196.28C74.8093 197.261 72.7933 181.751 72.7933 181.751L84.5416 183.558C84.5416 183.558 80.023 198.111 91.3543 200.312C102.686 202.513 103.713 185.358 103.713 185.358C103.713 185.358 112.68 188.656 136.054 185.961C159.705 183.234 182.398 163.26 182.398 163.26C182.398 163.26 190.516 165.917 192.347 171.146C194.115 176.213 190.539 183.504 193.691 190.078C196.842 196.651 209.718 192.101 216.091 174.946C222.463 157.791 229.608 126.941 203.23 111.694C175.493 95.6583 164.973 106.217 150.119 112.072C132.037 119.201 115.925 116.552 111.499 115.934C106.756 115.301 111.298 112.018 114.472 108.48C116.921 105.769 112.858 105.715 108.293 105.46C108.678 104.543 109.165 103.673 109.745 102.865C111.244 100.71 109.745 102.865 105.883 103.529C102.909 104.039 104.006 102.17 106.223 101.081C106.953 100.8 107.701 100.57 108.463 100.393C111.73 99.9993 108.27 98.7016 105.103 97.9369L103.396 97.2495C103.311 96.7629 105.713 96.3844 107.104 96.3072C108.95 96.2145 106.54 94.268 104.014 93.9359C102.253 93.7119 98.947 93.2407 96.4444 92.7773C97.2557 92.7519 98.0678 92.7674 98.8775 92.8236C104.501 93.0862 107.799 88.3668 109.158 82.1257C111.434 71.805 112.727 61.2919 113.02 50.7273C113.445 36.824 107.243 36.6309 99.6036 44.8725C93.3625 51.6156 77.3273 69.0411 77.3273 69.0411C73.5592 68.9037 69.7862 69.025 66.0347 69.4042C61.5547 69.8985 56.9512 69.8444 55.221 70.4315C55.221 70.4315 39.5797 54.7284 30.6584 45.1042C21.7371 35.48 18.2226 44.0615 18.6475 56.6903C19.1341 71.2116 21.5749 81.307 25.352 87.1618C28.5188 92.0898 34.1265 93.1712 35.988 94.8859C36.9999 95.7974 33.5318 96.369 31.091 95.8669C25.6841 94.7701 22.5481 94.1367 25.4447 96.5234C28.3412 98.9102 30.8515 98.3231 28.3335 98.9102C25.8154 99.4972 21.6521 99.0338 25.4447 100.911C27.1562 101.676 28.9838 102.148 30.8515 102.309L30.8052 102.471H30.3958C26.024 102.703 24.0389 104.425 23.0656 107.94C22.0924 111.454 19.7134 112.319 24.68 110.906Z" fill="#FFB000"/>
<path d="M169.8 160.162C164.246 161.915 140.364 180.955 123.039 181.658C105.713 182.361 103.728 184.03 103.69 185.443C103.69 185.443 112.65 188.749 136.023 186.053C159.674 183.327 182.367 163.352 182.367 163.352C182.367 163.352 182.707 163.468 183.263 163.684C182.721 163.263 182.228 162.781 181.796 162.248C180.938 161.043 175.361 158.409 169.8 160.162ZM114.472 108.612C111.723 111.701 107.961 114.528 110.062 115.656C105.698 118.498 99.1788 126.277 94.9537 132.942C85.4917 147.873 85.4608 171.092 84.9124 176.344C84.6615 178.762 84.2199 181.156 83.5916 183.504L72.7779 181.844C72.7779 181.844 72.7779 181.936 72.7779 182.083C72.0827 181.411 70.731 180.585 68.1434 179.766C63.8102 178.352 59.8478 176.383 53.8848 173.749C53.7844 172.976 50.4862 171.432 50.4862 171.432C50.4862 171.432 44.3069 170.134 37.6256 157.791C30.9056 145.324 36.2121 134.619 33.9412 134.171C31.6703 133.723 23.8999 135.824 28.1713 131.081C28.7513 130.438 29.39 129.851 30.0791 129.328C28.3237 128.988 26.6113 128.454 24.9735 127.736C21.6676 126.292 28.349 126.192 30.1332 124.925C30.2376 124.856 30.3205 124.76 30.3727 124.647C28.5706 123.462 26.84 122.173 25.1898 120.785C24.6101 120.417 24.1404 119.899 23.8304 119.286C23.2202 117.579 25.3057 117.301 28.04 117.185H28.1559C30.0263 117.542 31.9627 117.245 33.64 116.343C37.2934 114.273 40.2595 105.213 40.7307 98.2922C41.2018 91.3714 47.5201 84.945 55.5532 89.4481C61.6243 92.9008 67.0543 91.5336 66.2897 89.0619C65.525 86.5902 65.3628 79.2832 62.4276 71.6982C62.1882 71.0571 61.9487 70.4546 61.7093 69.8676C63.0687 69.7826 64.5208 69.6822 65.9575 69.52C68.8419 69.2264 71.7401 69.0897 74.6394 69.1106C73.8052 72.0457 73.0946 75.089 72.4303 78.4645C71.2717 84.3811 71.4185 87.324 71.4185 87.324L71.0631 89.5022C71.0631 89.5022 77.4355 90.0197 80.4788 88.3822C84.5726 86.1808 87.1601 84.188 92.4125 89.2087C94.1813 90.8925 96.3827 97.3885 96.0119 102.216C95.6412 107.044 100.855 109.716 108.262 105.584C112.858 105.839 116.913 105.893 114.472 108.612ZM101.342 194.596C99.5959 198.273 96.5603 201.432 91.3002 200.405C85.7234 199.315 83.9932 195.245 83.6611 191.391C85.1314 191.777 86.5424 192.362 87.8553 193.128C92.204 195.6 97.5413 195.222 101.372 194.627L101.342 194.596ZM53.6994 185.845C56.7041 187.274 60.3344 188.849 63.1846 189.413C66.3594 189.96 69.6256 189.515 72.5384 188.139C71.766 192.31 69.4488 196.921 62.7057 196.373C58.4961 196.025 55.6227 191.182 53.6994 185.845ZM193.675 190.17C191.984 186.648 192.231 182.91 192.548 179.426C194.701 181.836 197.209 183.904 199.986 185.559C202.663 187.001 205.696 187.649 208.729 187.428C202.651 193.94 195.869 194.696 193.698 190.17H193.675Z" fill="white"/>
<path d="M108.217 117.18C109.601 112.683 115.482 109.569 115.482 107.493C115.482 105.357 111.582 105.456 108.217 105.987L110.293 101.958C108.563 102.996 104.273 104.864 100.952 104.034M96.8003 92.6168C100.145 93.0781 106.972 94.3466 107.525 95.7305C108.079 97.1143 102.22 97.2296 99.222 97.1143" stroke="#0D0C22" stroke-width="1.00276" stroke-linecap="round" stroke-linejoin="round"/>
<path d="M40.7743 110.838C40.7743 110.838 70.9356 98.4997 102.006 94.4451C102.006 94.4451 111.379 112.267 111.852 131.161C82.3251 144.64 50.6207 147.553 50.6207 147.553C50.6207 147.553 40.8211 131.813 40.7743 110.838Z" fill="white" stroke="#26A9E0" stroke-width="1.00276" stroke-linejoin="round"/>
<path d="M43.6392 112.302C43.6392 112.302 71.229 126.366 77.4969 124.688C83.7648 123.01 100.62 97.0465 100.62 97.0465" stroke="#26A9E0" stroke-width="1.00276" stroke-linecap="round" stroke-linejoin="round"/>
<path d="M52.3076 144.629C52.3076 144.629 61.0253 131.2 68.2531 123.034M109.289 129.373C109.289 129.373 95.0197 122.099 84.6736 118.637" stroke="#26A9E0" stroke-width="1.00276" stroke-linecap="round" stroke-linejoin="round"/>
<path d="M87.8054 94.3296C87.8054 94.3296 87.6855 104.47 79.7047 103.79C76.1623 103.524 72.7402 102.404 69.738 100.531C69.738 100.531 64.425 105.86 58.3401 105.261C52.8322 104.714 52.5174 96.6578 52.5174 96.6578C52.5174 96.6578 60.8954 94.8322 62.9037 94.7214C64.9121 94.6105 67.6997 91.7649 69.5582 92.2084C71.4166 92.6519 78.1385 95.1648 79.2551 95.4974C80.3716 95.83 87.8054 94.3296 87.8054 94.3296Z" fill="white"/>
<path d="M81.5064 69.6282C82.8581 68.1065 101.821 43.3122 106.571 41.6902C110.116 40.4775 111.136 43.3277 110.24 54.0487C109.344 64.7697 107.058 84.5279 103.002 88.1582C102.123 88.8985 101.086 89.4275 99.971 89.7047C98.8557 89.9818 97.6917 89.9998 96.5683 89.7571C96.012 87.1881 95.1538 84.694 94.0117 82.3266C93.0423 80.1223 91.6844 78.1103 90.0029 76.3867C90.0029 76.3867 95.7341 72.3702 91.4473 74.0695C87.1604 75.7688 86.5579 75.5525 90.2268 71.4742C93.8958 67.3959 94.2434 64.7234 89.6321 69.3347C85.0208 73.9459 83.0203 74.4171 86.8746 69.7209C89.2613 66.8243 89.663 65.3336 88.7284 65.8588C86.3856 67.2353 83.9752 68.4933 81.5064 69.6282Z" fill="#FFD4E9"/>
<path d="M51.4361 71.2194C50.3934 69.8136 35.6867 53.454 31.9714 49.2135C28.0476 44.7026 24.5949 41.8988 22.7875 43.5131C18.5238 47.3751 22.0691 71.1576 24.9502 79.8935C28.6655 91.1244 38.4983 92.4143 38.4983 92.4143C38.4983 92.4143 38.0503 90.4215 40.1898 85.563C41.2142 83.3398 42.5284 81.262 44.0982 79.3838C44.0982 79.3838 37.695 73.0191 42.2058 75.6994C46.7167 78.3796 47.0566 80.2025 44.3763 75.4908C41.696 70.7791 39.093 67.5118 43.1482 70.6942C47.2033 73.8765 49.7291 75.6916 47.6127 72.4089C45.4963 69.1262 41.781 63.503 46.9021 68.5469C52.0231 73.5907 51.4361 71.2194 51.4361 71.2194Z" fill="#FFD4E9"/>
<path d="M83.8231 77.2824C84.8968 77.7381 89.5699 79.8004 86.7738 80.6655C86.3078 80.8465 85.809 80.9277 85.3096 80.9036C84.8103 80.8795 84.3216 80.7508 83.8752 80.5258C83.4288 80.3007 83.0347 79.9844 82.7183 79.5974C82.402 79.2103 82.1705 78.761 82.0389 78.2788C81.7685 77.012 83.8231 77.2824 83.8231 77.2824Z" fill="white"/>
<path d="M52.9269 78.4643C51.9074 79.0359 47.4815 81.5539 50.3471 82.141C50.8291 82.2731 51.3335 82.3024 51.8275 82.2267C52.3216 82.1511 52.7942 81.9723 53.2145 81.702C53.6349 81.4317 53.9937 81.076 54.2675 80.6579C54.5414 80.2398 54.7241 79.7687 54.8039 79.2753C54.9352 77.9931 52.9269 78.4643 52.9269 78.4643Z" fill="white"/>
<path d="M87.1133 95.1245C87.1133 95.1245 85.8058 104.486 78.5911 103.87C75.3887 103.618 72.2951 102.557 69.5811 100.782C69.5811 100.782 64.778 105.831 59.2772 105.264C54.298 104.745 51.8253 96.3849 51.8253 96.3849C51.8253 96.3849 61.5872 95.3836 63.4028 95.2785C65.2183 95.1735 67.7384 92.4777 69.4185 92.8978C71.0985 93.3179 77.1752 95.6987 78.1846 96.0138C79.194 96.3288 87.1133 95.1245 87.1133 95.1245Z" fill="white"/>
<path d="M87.8054 95.6211C87.8054 95.6211 86.0247 104.493 78.7022 103.882C75.452 103.632 72.3121 102.581 69.5576 100.821C69.5576 100.821 64.6828 105.826 59.0999 105.264C54.0532 104.75 51.8255 97.551 51.8255 97.551" stroke="#333333" stroke-width="1.00276" stroke-linecap="round" stroke-linejoin="round"/>
<path d="M69.1471 95.2877C67.0623 94.5537 65.0589 93.6063 63.1687 92.4607C60.8515 90.9159 63.1687 89.0235 66.5132 88.5292C69.8577 88.0348 74.4845 88.3129 75.6585 89.4869C76.8326 90.661 75.3727 92.5766 73.6812 93.2486C71.9896 93.9206 69.1471 95.2877 69.1471 95.2877Z" fill="#333333"/>
<path d="M69.4799 89.2785C67.994 89.2116 66.513 89.4919 65.1544 90.0972C63.71 90.8697 63.2002 91.7039 65.0695 91.4103C66.9387 91.1168 68.0432 90.5993 69.7425 90.7692C71.4418 90.9392 72.5464 90.4757 71.774 89.9041C71.0702 89.5155 70.2836 89.3009 69.4799 89.2785Z" fill="white"/>
<path d="M59.6238 88.8458C59.6238 88.8458 58.8514 87.301 56.1402 86.3896C55.3951 86.1763 54.6121 86.1302 53.847 86.2543C53.082 86.3785 52.3538 86.6699 51.7143 87.1079" stroke="#333333" stroke-width="1.00276" stroke-linecap="round" stroke-linejoin="round"/>
<path d="M77.6442 87.6715C77.9355 86.6706 78.546 85.7923 79.3826 85.1704C80.2193 84.5485 81.2362 84.217 82.2787 84.2266C83.4702 84.1497 84.6567 84.4409 85.6772 85.0608" stroke="#333333" stroke-width="1.00276" stroke-linecap="round" stroke-linejoin="round"/>
<path d="M199.43 189.545C198.783 189.866 198.245 190.371 197.885 190.997C197.507 191.624 197.197 192.29 196.958 192.982" stroke="#201C1D" stroke-width="1.00276" stroke-linecap="round" stroke-linejoin="round"/>
<path d="M196.008 187.444C195.451 187.917 194.978 188.481 194.61 189.112C194.234 189.603 193.97 190.169 193.837 190.773" stroke="#201C1D" stroke-width="1.00276" stroke-linecap="round" stroke-linejoin="round"/>
<path d="M92.9917 196.287C92.6655 197.019 92.477 197.805 92.4356 198.605C92.3815 199.864 92.4356 200.543 92.4356 200.543" stroke="#201C1D" stroke-width="1.00276" stroke-linecap="round" stroke-linejoin="round"/>
<path d="M89.0527 195.237C89.0527 195.237 88.9368 196.411 88.8905 197.779C88.844 198.461 88.904 199.146 89.0681 199.81" stroke="#201C1D" stroke-width="1.00276" stroke-linecap="round" stroke-linejoin="round"/>
<path d="M63.6483 192.008C63.4656 193.003 63.5319 194.027 63.8414 194.99C64.3666 196.218 64.552 196.303 64.552 196.303" stroke="#201C1D" stroke-width="1.00276" stroke-linecap="round" stroke-linejoin="round"/>
<path d="M59.7472 191.754C59.8236 192.85 60.0848 193.926 60.5196 194.936C60.7718 195.41 61.089 195.847 61.4619 196.234" stroke="#201C1D" stroke-width="1.00276" stroke-linecap="round" stroke-linejoin="round"/>
<path d="M36.6033 95.3849C35.9114 94.9237 33.5588 93.4476 29.6841 91.2334C24.8406 88.4657 22.4188 82.2384 20.343 73.2435C18.2673 64.2485 16.8834 42.7989 22.4188 41.4151C27.9542 40.0312 32.4517 46.6045 41.1008 55.9454C48.02 63.4181 53.0941 68.6306 55.2852 70.4758C59.1599 69.0919 71.8913 69.4379 77.0807 69.4379C80.425 65.9783 87.8055 58.2287 90.5731 54.9075C94.0327 50.756 104.066 37.9554 109.601 39.6852C113.366 40.8617 113.334 51.6651 112.369 61.8268M31.4139 115.797C29.6841 115.681 26.9164 115.451 26.9164 114.067C26.9164 112.683 30.6066 111.76 32.7977 111.645C29.2902 109.891 26.2218 110.333 24.1487 110.929M28.6462 117.18C27.147 116.95 24.1487 116.904 24.1487 118.564C24.1487 120.225 28.5309 123.523 30.376 124.792C26.2245 126.867 24.1487 125.483 24.1487 126.867C24.1487 128.251 30.7219 130.673 34.8735 126.867M84.3458 183.605C80.1844 182.941 76.3911 182.163 72.9291 181.292M28.6462 130.327C27.2623 131.365 26.9303 132.942 27.2623 133.441C27.9543 134.478 34.1816 133.787 34.8735 134.824C35.5654 135.862 31.4139 146.241 36.6033 156.274C39.2645 161.419 43.1995 167.11 50.7877 172.134M48.3659 74.6273C47.0974 73.3588 43.8685 70.545 41.1008 69.4379M46.2902 78.0869C45.137 77.3949 42.2078 75.7343 39.7169 74.6273M85.3837 73.2435C85.9603 72.2056 88.2898 69.507 92.9949 67.0161M88.4974 74.6273C89.4199 74.166 91.8186 73.2435 94.0327 73.2435M50.7877 172.134C51.4796 179.994 54.9392 195.852 63.2422 196.405C71.5453 196.959 73.1598 186.56 72.9291 181.292M50.7877 172.134C56.103 175.653 63.2109 178.844 72.9291 181.292M104.412 178.069C104.481 180.249 104.384 183.095 103.99 186.027M83.308 189.14C83.6539 191.908 84.3458 201.249 94.7247 200.557C100.537 200.169 103.071 192.866 103.99 186.027M103.99 186.027C111.28 186.913 126.207 188.448 141.775 184.989C149.574 183.256 155.776 180.765 160.457 178.361M168.76 173.226C166.924 174.603 164.169 176.455 160.457 178.361M160.457 178.361C159.765 182.416 159.696 190.524 164.955 190.524C171.528 190.524 178.101 182.221 179.139 165.961M211.659 183.605C210.276 186.027 203.01 195.368 196.091 192.6C189.172 189.832 193.669 174.956 192.632 171.15C191.801 168.106 186.75 165.961 182.599 162.847C178.447 159.734 175.679 152.814 177.063 147.625" stroke="#0D0C22" stroke-width="1.00276" stroke-linecap="round" stroke-linejoin="round"/>
<rect x="57.075" y="128.249" width="13.1646" height="9.87342" rx="0.771352" transform="rotate(15 57.075 128.249)" fill="white" stroke="#26A9E0" stroke-width="1.00276" stroke-linejoin="round"/>
</svg>
