<svg width="236" height="156" viewBox="0 0 236 156" fill="none" xmlns="http://www.w3.org/2000/svg">
<rect width="236" height="156" rx="4" fill="#ECF6FE"/>
<path d="M146.046 136.344C152.02 136.344 164.14 136.333 176.088 136.333C175.256 126.825 170.032 65.8143 167.936 41.8633H91.3671L87.8084 76.8961L81.0632 136.344H146.046Z" fill="white"/>
<path fill-rule="evenodd" clip-rule="evenodd" d="M90.621 41.7875C90.6599 41.4046 90.9823 41.1133 91.3671 41.1133H167.936C168.325 41.1133 168.65 41.4105 168.684 41.7979C169.731 53.7741 171.561 75.0152 173.233 94.4501C173.613 98.8653 173.985 103.187 174.337 107.286C175.537 121.231 176.514 132.594 176.835 136.267C176.854 136.477 176.783 136.684 176.641 136.839C176.499 136.994 176.298 137.083 176.088 137.083C170.114 137.083 164.097 137.086 158.827 137.088L156.186 137.09C152.051 137.092 148.521 137.094 146.046 137.094H81.0632C80.8496 137.094 80.6461 137.003 80.5038 136.844C80.3615 136.684 80.2939 136.472 80.318 136.26L87.0622 76.8203L90.621 41.7875ZM92.0448 42.6133L88.5537 76.9807L81.9031 135.594H146.046C148.514 135.594 152.032 135.592 156.153 135.59L158.826 135.588C163.856 135.586 169.566 135.583 175.27 135.583C174.891 131.229 173.963 120.441 172.842 107.398C172.489 103.304 172.118 98.9878 171.739 94.5786C170.098 75.5085 168.306 54.7009 167.249 42.6133H92.0448Z" fill="#0D0C22"/>
<path fill-rule="evenodd" clip-rule="evenodd" d="M113.516 35.8071C113.516 26.9363 120.167 19.6406 128.496 19.6406C136.824 19.6406 143.475 26.9363 143.475 35.8071V49.0212C143.475 49.4354 143.14 49.7712 142.725 49.7712C142.311 49.7712 141.975 49.4354 141.975 49.0212V35.8071C141.975 27.6493 135.885 21.1406 128.496 21.1406C121.107 21.1406 115.016 27.6493 115.016 35.8071V49.0212C115.016 49.4354 114.68 49.7712 114.266 49.7712C113.852 49.7712 113.516 49.4354 113.516 49.0212V35.8071Z" fill="#0D0C22"/>
<path d="M151.423 86.4794C151.423 99.218 141.158 109.545 128.495 109.545C115.833 109.545 105.568 99.218 105.568 86.4794C105.568 73.7408 115.833 63.4141 128.495 63.4141C141.158 63.4141 151.423 73.7408 151.423 86.4794Z" fill="#1CC6A9"/>
<path fill-rule="evenodd" clip-rule="evenodd" d="M128.495 64.1641C116.251 64.1641 106.318 74.1507 106.318 86.4794C106.318 98.808 116.251 108.795 128.495 108.795C140.739 108.795 150.673 98.808 150.673 86.4794C150.673 74.1507 140.739 64.1641 128.495 64.1641ZM104.818 86.4794C104.818 73.3308 115.414 62.6641 128.495 62.6641C141.576 62.6641 152.173 73.3308 152.173 86.4794C152.173 99.6279 141.576 110.295 128.495 110.295C115.414 110.295 104.818 99.6279 104.818 86.4794Z" fill="#0D0C22"/>
<path fill-rule="evenodd" clip-rule="evenodd" d="M137.034 89.8545C134.832 89.8545 133.04 91.6509 133.04 93.8763C133.04 96.1017 134.832 97.898 137.034 97.898C139.235 97.898 141.027 96.1017 141.027 93.8763C141.027 91.6509 139.235 89.8545 137.034 89.8545ZM131.54 93.8763C131.54 90.8309 133.995 88.3545 137.034 88.3545C140.072 88.3545 142.527 90.8309 142.527 93.8763C142.527 96.9216 140.072 99.398 137.034 99.398C133.995 99.398 131.54 96.9216 131.54 93.8763Z" fill="#0D0C22"/>
<path fill-rule="evenodd" clip-rule="evenodd" d="M120.906 73.6309C118.705 73.6309 116.913 75.4272 116.913 77.6526C116.913 79.878 118.705 81.6744 120.906 81.6744C123.108 81.6744 124.9 79.878 124.9 77.6526C124.9 75.4272 123.108 73.6309 120.906 73.6309ZM115.413 77.6526C115.413 74.6073 117.868 72.1309 120.906 72.1309C123.945 72.1309 126.4 74.6073 126.4 77.6526C126.4 80.698 123.945 83.1744 120.906 83.1744C117.868 83.1744 115.413 80.698 115.413 77.6526Z" fill="#0D0C22"/>
<path fill-rule="evenodd" clip-rule="evenodd" d="M138.583 77.3953L119.466 96.6279L118.408 95.5641L137.526 76.3315L138.583 77.3953Z" fill="#0D0C22"/>
<path d="M182.393 136.344C186.573 136.344 195.052 136.336 203.412 136.336C202.83 129.684 199.175 86.999 197.709 70.2422H144.139L141.649 94.7521L136.93 136.344H182.393Z" fill="#26A9E0"/>
<path fill-rule="evenodd" clip-rule="evenodd" d="M143.392 70.1664C143.431 69.7835 143.754 69.4922 144.139 69.4922H197.709C198.098 69.4922 198.422 69.7894 198.456 70.1768C199.189 78.5559 200.469 93.4169 201.639 107.014C201.904 110.093 202.163 113.107 202.409 115.966C203.249 125.735 203.934 133.698 204.159 136.27C204.177 136.48 204.107 136.687 203.965 136.842C203.823 136.997 203.622 137.086 203.412 137.086C199.232 137.086 195.023 137.088 191.336 137.09L189.46 137.091C186.579 137.092 184.119 137.094 182.393 137.094H136.93C136.716 137.094 136.513 137.003 136.37 136.843C136.228 136.684 136.16 136.471 136.184 136.259L140.903 94.6763L143.392 70.1664ZM144.816 70.9922L142.394 94.8367L137.77 135.594H182.393C184.13 135.594 186.609 135.592 189.513 135.591L191.335 135.59C194.781 135.588 198.685 135.586 202.594 135.586C202.316 132.393 201.68 124.998 200.915 116.106C200.669 113.243 200.41 110.225 200.145 107.143C199.006 93.9081 197.763 79.4778 197.021 70.9922H144.816Z" fill="#0D0C22"/>
<path fill-rule="evenodd" clip-rule="evenodd" d="M159.409 66.0045C159.409 59.6912 164.147 54.4688 170.115 54.4688C176.083 54.4688 180.82 59.6912 180.82 66.0045V75.2495C180.82 75.6637 180.485 75.9995 180.07 75.9995C179.656 75.9995 179.32 75.6637 179.32 75.2495V66.0045C179.32 60.4042 175.143 55.9688 170.115 55.9688C165.086 55.9688 160.909 60.4042 160.909 66.0045V75.2495C160.909 75.6637 160.574 75.9995 160.159 75.9995C159.745 75.9995 159.409 75.6637 159.409 75.2495V66.0045Z" fill="#0D0C22"/>
<path d="M186.155 101.456C186.155 110.369 178.974 117.594 170.115 117.594C161.256 117.594 154.074 110.369 154.074 101.456C154.074 92.5442 161.256 85.3193 170.115 85.3193C178.974 85.3193 186.155 92.5442 186.155 101.456Z" fill="#C7E5FB"/>
<path fill-rule="evenodd" clip-rule="evenodd" d="M170.115 86.0693C161.674 86.0693 154.824 92.9541 154.824 101.456C154.824 109.959 161.674 116.844 170.115 116.844C178.555 116.844 185.405 109.959 185.405 101.456C185.405 92.9541 178.555 86.0693 170.115 86.0693ZM153.324 101.456C153.324 92.1342 160.837 84.5693 170.115 84.5693C179.392 84.5693 186.905 92.1342 186.905 101.456C186.905 110.779 179.392 118.344 170.115 118.344C160.837 118.344 153.324 110.779 153.324 101.456Z" fill="#0D0C22"/>
<path fill-rule="evenodd" clip-rule="evenodd" d="M176.088 104.043C174.674 104.043 173.52 105.198 173.52 106.631C173.52 108.065 174.674 109.22 176.088 109.22C177.502 109.22 178.657 108.065 178.657 106.631C178.657 105.198 177.502 104.043 176.088 104.043ZM172.02 106.631C172.02 104.378 173.837 102.543 176.088 102.543C178.339 102.543 180.157 104.378 180.157 106.631C180.157 108.885 178.339 110.72 176.088 110.72C173.837 110.72 172.02 108.885 172.02 106.631Z" fill="#0D0C22"/>
<path fill-rule="evenodd" clip-rule="evenodd" d="M164.805 92.6924C163.391 92.6924 162.237 93.847 162.237 95.2808C162.237 96.7147 163.391 97.8693 164.805 97.8693C166.22 97.8693 167.374 96.7147 167.374 95.2808C167.374 93.847 166.22 92.6924 164.805 92.6924ZM160.737 95.2808C160.737 93.0271 162.554 91.1924 164.805 91.1924C167.056 91.1924 168.874 93.0271 168.874 95.2808C168.874 97.5346 167.056 99.3693 164.805 99.3693C162.554 99.3693 160.737 97.5346 160.737 95.2808Z" fill="#0D0C22"/>
<path fill-rule="evenodd" clip-rule="evenodd" d="M177.331 95.2611L163.956 108.717L162.898 107.653L176.274 94.1973L177.331 95.2611Z" fill="#0D0C22"/>
<path d="M68.3354 77.617L70.8871 79.5451L73.4994 64.6775L67.1459 64.1382L64.9901 78.5288L68.3354 77.617Z" fill="#1CC6A9"/>
<path fill-rule="evenodd" clip-rule="evenodd" d="M50.6581 54.4315C50.8412 54.3159 51.0654 54.285 51.2729 54.3468L87.443 65.124C87.8169 65.2354 88.0429 65.6149 87.9629 65.9967L82.5508 91.8134C82.478 92.1607 82.1717 92.4095 81.8167 92.4095L45.3725 92.4095C45.1535 92.4095 44.9454 92.3137 44.8029 92.1474C44.6604 91.9811 44.5978 91.7607 44.6314 91.5443L50.3177 54.9504C50.3509 54.7364 50.475 54.5472 50.6581 54.4315ZM51.668 56.0297L46.248 90.9095L50.4355 90.9095L55.6136 63.085C55.6841 62.706 56.0303 62.4423 56.4143 62.4749L80.0239 64.4786L51.668 56.0297ZM86.3209 66.5185L74.1195 65.4829L71.6258 79.675C71.5806 79.9322 71.4048 80.1475 71.1618 80.2431C70.9187 80.3387 70.6434 80.301 70.435 80.1436L68.1773 78.4376L65.1874 79.2526C64.9429 79.3192 64.6812 79.2579 64.4918 79.0895C64.3024 78.9211 64.2109 78.6685 64.2484 78.4179L66.2857 64.818L56.964 64.0269L51.9612 90.9095L81.2077 90.9095L86.3209 66.5185ZM67.7834 64.9452L65.9022 77.503L68.1382 76.8935C68.3624 76.8324 68.6022 76.8787 68.7876 77.0187L70.3607 78.2074L72.6189 65.3555L67.7834 64.9452Z" fill="#0D0C22"/>
<path d="M103.878 41.6515C104.792 41.8979 105.335 42.8393 105.092 43.7542L81.6011 131.949C81.3575 132.864 80.4189 133.406 79.5047 133.159L64.623 129.148C63.7088 128.901 63.1653 127.96 63.409 127.045L86.8994 38.8503C87.1431 37.9354 88.0817 37.3935 88.9959 37.64L103.878 41.6515Z" fill="#26A9E0"/>
<path fill-rule="evenodd" clip-rule="evenodd" d="M104.071 40.926C105.385 41.2802 106.166 42.6335 105.816 43.9487L82.3252 132.143C81.9749 133.458 80.6257 134.237 79.3116 133.883L64.4299 129.872C63.1158 129.517 62.3345 128.164 62.6848 126.849L86.1752 38.6544C86.5255 37.3392 87.8747 36.5603 89.1888 36.9145L104.071 40.926ZM104.367 43.5582C104.504 43.0436 104.199 42.5141 103.685 42.3755L88.8028 38.3639C88.2886 38.2253 87.7606 38.5301 87.6235 39.0448L64.1331 127.239C63.996 127.754 64.3017 128.284 64.8159 128.422L79.6977 132.434C80.2119 132.572 80.7399 132.268 80.8769 131.753L104.367 43.5582Z" fill="#0D0C22"/>
<path d="M103.811 48.5596L101.974 55.4585L83.7815 50.5546L85.619 43.6557L103.811 48.5596Z" fill="#FFC808"/>
<path fill-rule="evenodd" clip-rule="evenodd" d="M104.004 47.8351C104.404 47.9429 104.642 48.3547 104.535 48.755L102.698 55.6539C102.591 56.0542 102.181 56.2912 101.781 56.1834L83.5885 51.2795C83.1886 51.1717 82.9508 50.7599 83.0574 50.3596L84.8949 43.4607C85.0015 43.0605 85.4121 42.8234 85.8121 42.9312L104.004 47.8351ZM102.894 49.0893L86.1502 44.5759L84.6987 50.0253L101.443 54.5388L102.894 49.0893Z" fill="#0D0C22"/>
<path d="M111.348 60.9728C112.262 61.2192 112.805 62.1606 112.562 63.0755L96.5264 123.28C96.2827 124.194 95.3441 124.736 94.4299 124.49L85.9689 122.209C85.0548 121.963 84.5113 121.021 84.755 120.106L100.79 59.9024C101.034 58.9875 101.972 58.4456 102.887 58.692L111.348 60.9728Z" fill="#2660AB"/>
<path fill-rule="evenodd" clip-rule="evenodd" d="M111.541 60.2483C112.855 60.6025 113.636 61.9558 113.286 63.2709L97.2506 123.475C96.9003 124.79 95.551 125.569 94.237 125.215L85.776 122.934C84.4619 122.58 83.6806 121.227 84.0309 119.911L100.066 59.7074C100.416 58.3923 101.766 57.6133 103.08 57.9675L111.541 60.2483ZM111.837 62.8805C111.975 62.3659 111.669 61.8363 111.155 61.6977L102.694 59.417C102.179 59.2784 101.651 59.5832 101.514 60.0978L85.4792 120.302C85.3421 120.816 85.6478 121.346 86.162 121.485L94.623 123.765C95.1372 123.904 95.6652 123.599 95.8023 123.085L111.837 62.8805Z" fill="#0D0C22"/>
<path d="M54.3113 125.77C54.555 126.685 55.4936 127.227 56.4078 126.981L60.8489 125.783C61.7631 125.537 62.3066 124.596 62.0629 123.681L60.4271 117.539L52.6755 119.629L54.3113 125.77Z" fill="#F34A57"/>
<path fill-rule="evenodd" clip-rule="evenodd" d="M60.4629 124.334L56.0217 125.531C55.9074 125.562 55.7901 125.494 55.7597 125.38L54.5099 120.688L59.3649 119.379L60.6146 124.071C60.6451 124.185 60.5771 124.303 60.4629 124.334ZM56.4078 126.981C55.4936 127.227 54.555 126.685 54.3113 125.77L52.6755 119.629L60.4271 117.539L62.0629 123.681C62.3066 124.596 61.7631 125.537 60.8489 125.783L56.4078 126.981Z" fill="#F34A57"/>
<path d="M36.0592 57.2441L43.8108 55.1546L60.4269 117.54L52.6754 119.629L36.0592 57.2441Z" fill="#FFC808"/>
<path fill-rule="evenodd" clip-rule="evenodd" d="M42.7485 56.9945L37.8936 58.3032L53.7376 117.789L58.5926 116.481L42.7485 56.9945ZM36.0592 57.2441L52.6754 119.629L60.4269 117.54L43.8108 55.1546L36.0592 57.2441Z" fill="#0D0C22"/>
<path d="M50.9158 113.023L58.6673 110.934L60.7707 118.831L53.0192 120.921L50.9158 113.023Z" fill="white"/>
<path fill-rule="evenodd" clip-rule="evenodd" d="M57.6051 112.774L52.7501 114.083L54.0814 119.081L58.9363 117.772L57.6051 112.774ZM50.9158 113.023L53.0192 120.921L60.7707 118.831L58.6673 110.934L50.9158 113.023Z" fill="#0D0C22"/>
<path d="M37.858 48.4006L43.8108 55.154L44.2262 56.7136L36.4746 58.8031L36.0592 57.2435L37.858 48.4006Z" fill="white"/>
<path fill-rule="evenodd" clip-rule="evenodd" d="M42.2773 55.6854L38.7248 51.6552L37.6514 56.9324L42.2773 55.6854ZM36.0592 57.2435L37.858 48.4006L43.8108 55.154L44.2262 56.7136L36.4746 58.8031L36.0592 57.2435Z" fill="#0D0C22"/>
<path d="M49.9183 61.4249C49.7748 60.4891 50.4169 59.6128 51.3525 59.4675L55.8956 58.7624C56.8312 58.6172 57.706 59.2581 57.8495 60.194L58.7645 66.1608L50.8334 67.3918L49.9183 61.4249Z" fill="#F34A57"/>
<path fill-rule="evenodd" clip-rule="evenodd" d="M56.123 60.2451L51.5798 60.9502C51.4629 60.9684 51.3826 61.0779 51.4006 61.1949L52.0883 65.6791L57.0549 64.9082L56.3672 60.424C56.3493 60.307 56.2399 60.2269 56.123 60.2451ZM51.3525 59.4675C50.4169 59.6128 49.7748 60.4891 49.9183 61.4249L50.8334 67.3918L58.7645 66.1608L57.8495 60.194C57.706 59.2581 56.8312 58.6172 55.8956 58.7624L51.3525 59.4675Z" fill="#0D0C22"/>
<path d="M60.2327 128.683L68.1638 127.452L58.7644 66.1611L50.8332 67.3921L60.2327 128.683Z" fill="#FFC808"/>
<path fill-rule="evenodd" clip-rule="evenodd" d="M66.4542 126.199L61.4875 126.97L52.5428 68.6447L57.5095 67.8739L66.4542 126.199ZM60.2327 128.683L50.8332 67.3921L58.7644 66.1611L68.1638 127.452L60.2327 128.683Z" fill="#0D0C22"/>
<path d="M51.8281 73.8818L59.7593 72.6509L58.5694 64.8923L50.6383 66.1233L51.8281 73.8818Z" fill="white"/>
<path fill-rule="evenodd" clip-rule="evenodd" d="M58.0497 71.3982L53.083 72.1691L52.3479 67.3759L57.3146 66.605L58.0497 71.3982ZM51.8281 73.8818L50.6383 66.1233L58.5694 64.8923L59.7593 72.6509L51.8281 73.8818Z" fill="#0D0C22"/>
<path d="M65.3734 135.728L68.1641 127.451L67.9291 125.919L59.9979 127.15L60.2329 128.682L65.3734 135.728Z" fill="white"/>
<path fill-rule="evenodd" clip-rule="evenodd" d="M66.513 127.657L64.8789 132.504L61.8688 128.378L66.513 127.657ZM60.2329 128.682L65.3734 135.728L68.1641 127.451L67.9291 125.919L59.9979 127.15L60.2329 128.682Z" fill="#0D0C22"/>
<path fill-rule="evenodd" clip-rule="evenodd" d="M102.712 106.534L100.172 136.343H42.5623L40.0099 106.386" fill="#C7E5FB"/>
<path fill-rule="evenodd" clip-rule="evenodd" d="M43.2511 135.594L40.7572 106.322L39.2626 106.45L41.815 136.407C41.8481 136.795 42.1728 137.094 42.5623 137.094H100.172C100.562 137.094 100.886 136.795 100.919 136.407L103.459 106.598L101.965 106.47L99.4832 135.594H43.2511Z" fill="#0D0C22"/>
<path fill-rule="evenodd" clip-rule="evenodd" d="M59.7345 116.089C60.1487 116.089 60.4845 116.425 60.4845 116.839V127.427C60.4845 127.841 60.1487 128.177 59.7345 128.177C59.3203 128.177 58.9845 127.841 58.9845 127.427V116.839C58.9845 116.425 59.3203 116.089 59.7345 116.089Z" fill="#0D0C22"/>
<path fill-rule="evenodd" clip-rule="evenodd" d="M70.8132 116.089C71.2274 116.089 71.5632 116.425 71.5632 116.839V127.427C71.5632 127.841 71.2274 128.177 70.8132 128.177C70.399 128.177 70.0632 127.841 70.0632 127.427V116.839C70.0632 116.425 70.399 116.089 70.8132 116.089Z" fill="#0D0C22"/>
<path fill-rule="evenodd" clip-rule="evenodd" d="M81.892 116.089C82.3062 116.089 82.642 116.425 82.642 116.839V127.427C82.642 127.841 82.3062 128.177 81.892 128.177C81.4778 128.177 81.142 127.841 81.142 127.427V116.839C81.142 116.425 81.4778 116.089 81.892 116.089Z" fill="#0D0C22"/>
<path d="M32.5914 93.476C32.5914 92.5292 33.3589 91.7617 34.3057 91.7617H108.429C109.375 91.7617 110.143 92.5292 110.143 93.476V104.536C110.143 105.483 109.375 106.251 108.429 106.251H34.3057C33.3589 106.251 32.5914 105.483 32.5914 104.536V93.476Z" fill="#ECF6FE"/>
<path fill-rule="evenodd" clip-rule="evenodd" d="M31.8414 93.476C31.8414 92.115 32.9447 91.0117 34.3057 91.0117H108.429C109.79 91.0117 110.893 92.115 110.893 93.476V104.536C110.893 105.897 109.79 107.001 108.429 107.001H34.3057C32.9447 107.001 31.8414 105.897 31.8414 104.536V93.476ZM34.3057 92.5117C33.7732 92.5117 33.3414 92.9434 33.3414 93.476V104.536C33.3414 105.069 33.7732 105.501 34.3057 105.501H108.429C108.961 105.501 109.393 105.069 109.393 104.536V93.476C109.393 92.9434 108.961 92.5117 108.429 92.5117H34.3057Z" fill="#0D0C22"/>
<path fill-rule="evenodd" clip-rule="evenodd" d="M71.921 95.8555C70.198 95.8555 68.7935 97.2619 68.7935 99.0064C68.7935 100.751 70.198 102.157 71.921 102.157C73.6441 102.157 75.0486 100.751 75.0486 99.0064C75.0486 97.2619 73.6441 95.8555 71.921 95.8555ZM67.2935 99.0064C67.2935 96.442 69.3611 94.3555 71.921 94.3555C74.481 94.3555 76.5486 96.442 76.5486 99.0064C76.5486 101.571 74.481 103.657 71.921 103.657C69.3611 103.657 67.2935 101.571 67.2935 99.0064Z" fill="#0D0C22"/>
<path fill-rule="evenodd" clip-rule="evenodd" d="M71.9368 98.4846C72.2252 98.1873 72.7 98.1801 72.9973 98.4685L104.018 128.561C104.315 128.849 104.322 129.324 104.034 129.622C103.746 129.919 103.271 129.926 102.973 129.638L71.9529 99.5452C71.6556 99.2567 71.6484 98.7819 71.9368 98.4846Z" fill="#0D0C22"/>
</svg>
