<svg width="400" height="600" viewBox="0 0 400 600" fill="none" xmlns="http://www.w3.org/2000/svg">
  <path fill-rule="evenodd" clip-rule="evenodd" d="M121.085 156.543C121.735 156.785 122.423 156.909 123.117 156.909H328.256C329.863 156.909 331.164 158.212 331.164 159.82V459.25C331.164 460.858 329.863 462.161 328.256 462.161H83.6519C80.4397 462.161 77.8357 459.554 77.8357 456.34V140.409" fill="#ECF6FE"/>
  <path d="M121.085 156.543C121.735 156.785 122.423 156.909 123.117 156.909H328.256C329.863 156.909 331.164 158.212 331.164 159.82V459.25C331.164 460.858 329.863 462.161 328.256 462.161H83.6519C80.4397 462.161 77.8357 459.554 77.8357 456.34V140.409" stroke="#26A9E0"/>
  <path fill-rule="evenodd" clip-rule="evenodd" d="M77.8357 140.351C77.8357 131.231 85.2164 123.839 94.321 123.839H313.024C314.16 123.839 315.08 124.761 315.08 125.898V156.91H126.089L94.2967 156.863C85.2016 156.85 77.8357 149.461 77.8357 140.351Z" fill="#ECF6FE" stroke="#26A9E0"/>
  <path fill-rule="evenodd" clip-rule="evenodd" d="M97.9417 148.645C97.9417 144.097 101.623 140.409 106.164 140.409H298.995V156.909H138.834L106.157 156.881C101.619 156.877 97.9417 153.191 97.9417 148.645Z" fill="#ECF6FE" stroke="#26A9E0" stroke-linejoin="round"/>
  <path d="M114.027 156.91V462.161" stroke="#26A9E0"/>
  <path fill-rule="evenodd" clip-rule="evenodd" d="M240.186 342.174H195.334C193.057 342.174 191.176 340.045 191.176 337.419V333.356C191.176 331.078 192.611 329.145 194.443 328.7V283.125C192.562 282.679 191.176 280.747 191.176 278.468V274.406C191.176 271.78 193.057 269.65 195.334 269.65H240.186C242.463 269.65 244.344 271.78 244.344 274.406V278.468C244.344 280.747 242.909 282.679 241.028 283.125V328.651C242.909 329.096 244.344 331.028 244.344 333.308V337.37C244.344 340.045 242.463 342.174 240.186 342.174ZM195.335 330.583C194.147 330.583 193.206 331.821 193.206 333.308V337.37C193.206 338.855 194.147 340.095 195.335 340.095H240.187C241.375 340.095 242.316 338.855 242.316 337.37V333.308C242.316 331.821 241.375 330.583 240.187 330.583H207.662V328.551H237.613C236.722 317.653 230.137 308.835 221.276 306.904L217.761 306.16L214.246 306.904C205.088 308.885 198.355 318.247 197.86 329.642L197.81 330.633H195.335V330.583ZM210.582 305.913C203.602 308.785 198.355 315.622 196.473 324.192V287.633C198.355 296.154 203.602 303.04 210.582 305.913ZM224.89 305.863C231.821 308.686 237.118 315.572 238.999 324.093V287.682C237.118 296.203 231.87 303.039 224.89 305.863ZM214.195 304.872C205.284 302.94 198.651 294.023 197.859 282.976V282.926H219.492V280.895H194.393C193.651 280.449 193.156 279.508 193.156 278.418V274.356C193.156 272.87 194.096 271.632 195.284 271.632H240.136C241.324 271.632 242.265 272.87 242.265 274.356V278.418C242.265 279.904 241.275 281.143 240.136 281.143H237.661L237.611 282.134C237.116 293.527 230.384 302.89 221.225 304.872L217.71 305.615L214.195 304.872Z" fill="#26A9E0"/>
  <path d="M215.383 301.156C215.284 301.156 215.185 301.156 215.135 301.107C210.482 299.769 206.373 296.054 203.947 290.902C203.848 290.654 203.799 290.406 203.898 290.159C203.997 289.911 204.145 289.713 204.393 289.614C204.591 289.515 204.888 289.465 205.135 289.564C205.383 289.663 205.581 289.812 205.68 290.06C207.908 294.716 211.571 298.085 215.68 299.274C216.175 299.422 216.472 299.967 216.324 300.463C216.175 300.859 215.779 301.156 215.383 301.156Z" fill="#26A9E0"/>
  <path d="M234.344 326.075H225.581C225.037 326.075 224.641 325.63 224.641 325.133C224.641 324.589 225.086 324.192 225.581 324.192H232.067C231.819 323.054 231.374 321.171 230.73 319.783C230.482 319.288 230.73 318.744 231.175 318.496C231.423 318.396 231.671 318.396 231.918 318.446C232.166 318.545 232.364 318.694 232.463 318.941C233.552 321.27 234.146 324.837 234.195 324.935L234.344 326.075Z" fill="#26A9E0"/>
  <path d="M217.612 257.094C217.612 256.614 217.224 256.226 216.746 256.226C216.267 256.226 215.879 256.614 215.879 257.094V261.947C215.879 262.426 216.267 262.814 216.746 262.814C217.224 262.814 217.612 262.426 217.612 261.947V257.094Z" fill="#26A9E0"/>
  <path d="M238.345 259.737L234.527 262.734C234.151 263.029 234.085 263.574 234.38 263.951C234.675 264.327 235.22 264.393 235.596 264.098L239.414 261.101C239.79 260.806 239.856 260.261 239.561 259.884C239.265 259.507 238.721 259.441 238.345 259.737Z" fill="#26A9E0"/>
  <path d="M195.819 259.671C195.442 259.376 194.898 259.441 194.602 259.818C194.307 260.195 194.373 260.739 194.749 261.035L198.567 264.031C198.944 264.326 199.488 264.26 199.783 263.884C200.079 263.507 200.013 262.962 199.637 262.667L195.819 259.671Z" fill="#26A9E0"/>
  <path d="M217.612 348.045C217.612 347.566 217.224 347.177 216.746 347.177C216.267 347.177 215.879 347.566 215.879 348.045V352.898C215.879 353.378 216.267 353.766 216.746 353.766C217.224 353.766 217.612 353.378 217.612 352.898V348.045Z" fill="#26A9E0"/>
  <path d="M235.54 345.144C235.163 344.849 234.619 344.914 234.324 345.291C234.028 345.668 234.094 346.213 234.47 346.508L238.288 349.505C238.665 349.8 239.209 349.734 239.504 349.358C239.8 348.981 239.734 348.436 239.358 348.141L235.54 345.144Z" fill="#26A9E0"/>
  <path d="M198.654 345.18L194.836 348.176C194.46 348.472 194.394 349.017 194.689 349.393C194.985 349.77 195.529 349.836 195.905 349.54L199.723 346.544C200.1 346.248 200.165 345.704 199.87 345.327C199.575 344.95 199.03 344.884 198.654 345.18Z" fill="#26A9E0"/>
</svg>
